# Blender v2.79 (sub 0) OBJ File: 'figure8.blend'
# www.blender.org
mtllib figure region.mtl
g region_27
v -49.429398 -128.000122 22.261236
v -49.429398 -128.000122 -22.261240
v -78.672073 -128.000122 21.604986
v -76.190384 -128.000122 -22.848303
v -49.429398 128.000244 -22.261244
v -76.190384 128.000244 -22.848307
v -49.429398 128.000244 22.261232
v -78.672073 128.000244 21.604982
vn 0.0000 -1.0000 -0.0000
vn 0.0000 1.0000 0.0000
vn 0.0219 -0.0000 -0.9998
vn -0.0224 0.0000 0.9997
vn 1.0000 0.0000 0.0000
vn -0.9984 0.0000 -0.0557
usemtl None
s off
f 2//1 1//1 3//1 4//1
f 5//2 6//2 8//2 7//2
f 2//3 4//3 6//3 5//3
f 3//4 1//4 7//4 8//4
f 1//5 2//5 5//5 7//5
f 4//6 3//6 8//6 6//6
g region_1
v -3.668493 -128.000122 22.261234
v -3.668493 -128.000122 -22.261242
v 32.626945 -128.000122 23.063740
v 32.626945 -128.000122 -21.458736
v 32.626945 128.000244 23.063736
v 32.626945 128.000244 -21.458740
v -3.668493 128.000244 22.261230
v -3.668493 128.000244 -22.261246
vn 0.0000 -1.0000 0.0000
vn 0.0000 1.0000 0.0000
vn 1.0000 0.0000 0.0000
vn -0.0221 0.0000 0.9998
vn 0.0221 -0.0000 -0.9998
vn -1.0000 0.0000 0.0000
usemtl None
s off
f 10//7 12//7 11//7 9//7
f 16//8 15//8 13//8 14//8
f 11//9 12//9 14//9 13//9
f 9//10 11//10 13//10 15//10
f 12//11 10//11 16//11 14//11
f 10//12 9//12 15//12 16//12
g region_2
v 32.626945 -128.000122 23.063740
v 32.626945 -128.000122 -21.458736
v 65.943298 -128.000061 22.059589
v 65.517349 -128.000061 -22.460854
v 65.943298 128.000275 22.059586
v 65.517349 128.000275 -22.460857
v 32.626945 128.000244 23.063736
v 32.626945 128.000244 -21.458740
vn 0.0000 -1.0000 0.0000
vn -0.0000 1.0000 -0.0000
vn -1.0000 0.0000 0.0000
vn 1.0000 0.0000 -0.0096
vn 0.0301 0.0000 0.9995
vn -0.0305 -0.0000 -0.9995
usemtl None
s off
f 18//13 20//13 19//13 17//13
f 24//14 23//14 21//14 22//14
f 18//15 17//15 23//15 24//15
f 19//16 20//16 22//16 21//16
f 17//17 19//17 21//17 23//17
f 20//18 18//18 24//18 22//18
g region_3
v 65.943306 -128.000092 22.059589
v 65.517357 -128.000092 -22.460854
v 109.816925 -128.000092 10.165395
v 90.525497 -128.000092 -29.960556
v 109.816925 128.000275 10.165391
v 90.525497 128.000275 -29.960560
v 65.943306 128.000275 22.059586
v 65.517357 128.000275 -22.460857
vn 0.0000 -1.0000 0.0000
vn 0.0000 1.0000 0.0000
vn 0.9013 -0.0000 -0.4333
vn 0.2617 0.0000 0.9652
vn -0.2873 -0.0000 -0.9579
vn -1.0000 0.0000 0.0096
usemtl None
s off
f 26//19 28//19 27//19 25//19
f 32//20 31//20 29//20 30//20
f 27//21 28//21 30//21 29//21
f 25//22 27//22 29//22 31//22
f 28//23 26//23 32//23 30//23
f 26//24 25//24 31//24 32//24
g region_4
v 109.816917 -128.000092 10.165393
v 90.525490 -128.000092 -29.960552
v 144.887177 -128.000092 -16.704294
v 109.624390 -128.000092 -43.884926
v 144.887177 128.000275 -16.704298
v 109.624390 128.000275 -43.884930
v 109.816917 128.000275 10.165389
v 90.525490 128.000275 -29.960556
vn 0.0000 -1.0000 0.0000
vn 0.0000 1.0000 0.0000
vn 0.6105 0.0000 -0.7920
vn 0.6082 0.0000 0.7938
vn -0.5891 0.0000 -0.8080
vn -0.9013 0.0000 0.4333
usemtl None
s off
f 34//25 36//25 35//25 33//25
f 40//26 39//26 37//26 38//26
f 35//27 36//27 38//27 37//27
f 33//28 35//28 37//28 39//28
f 36//29 34//29 40//29 38//29
f 34//30 33//30 39//30 40//30
g region_5
v 144.887177 -128.000092 -16.704294
v 109.624390 -128.000092 -43.884926
v 167.364288 -128.000092 -56.873695
v 124.597580 -128.000092 -69.253517
v 167.364288 128.000275 -56.873699
v 124.597580 128.000275 -69.253532
v 144.887177 128.000275 -16.704298
v 109.624390 128.000275 -43.884930
vn 0.0000 -1.0000 0.0000
vn 0.0000 1.0000 0.0000
vn 0.2781 -0.0000 -0.9606
vn 0.8727 0.0000 0.4883
vn -0.8612 0.0000 -0.5083
vn -0.6105 0.0000 0.7920
usemtl None
s off
f 42//31 44//31 43//31 41//31
f 48//32 47//32 45//32 46//32
f 43//33 44//33 46//33 45//33
f 41//34 43//34 45//34 47//34
f 44//35 42//35 48//35 46//35
f 42//36 41//36 47//36 48//36
g region_6
v 167.364288 -128.000092 -56.873695
v 124.597580 -128.000092 -69.253517
v 168.931793 -128.000092 -95.808556
v 124.887726 -128.000092 -89.299156
v 168.931793 128.000275 -95.808556
v 124.887726 128.000275 -89.299156
v 167.364288 128.000275 -56.873699
v 124.597580 128.000275 -69.253532
vn 0.0000 -1.0000 -0.0000
vn 0.0000 1.0000 0.0000
vn -0.1462 0.0000 -0.9893
vn 0.9992 0.0000 0.0402
vn -0.9999 0.0000 -0.0145
vn -0.2781 0.0000 0.9606
usemtl None
s off
f 50//37 52//37 51//37 49//37
f 56//38 55//38 53//38 54//38
f 51//39 52//39 54//39 53//39
f 49//40 51//40 53//40 55//40
f 52//41 50//41 56//41 54//41
f 50//42 49//42 55//42 56//42
g region_7
v 168.931793 -128.000092 -95.808556
v 124.887726 -128.000092 -89.299156
v 144.581451 -128.000092 -137.132812
v 116.264725 -128.000092 -102.775642
v 144.581451 128.000275 -137.132812
v 116.264725 128.000275 -102.775642
v 168.931793 128.000275 -95.808556
v 124.887726 128.000275 -89.299156
vn 0.0000 -1.0000 0.0000
vn 0.0000 1.0000 -0.0000
vn -0.7717 0.0000 -0.6360
vn 0.8616 0.0000 -0.5077
vn -0.8423 0.0000 0.5390
vn 0.1462 0.0000 0.9893
usemtl None
s off
f 58//43 60//43 59//43 57//43
f 64//44 63//44 61//44 62//44
f 59//45 60//45 62//45 61//45
f 57//46 59//46 61//46 63//46
f 60//47 58//47 64//47 62//47
f 58//48 57//48 63//48 64//48
g region_8
v 144.581451 -128.000092 -137.132812
v 116.264725 -128.000092 -102.775642
v 97.945259 -128.000092 -154.906555
v 94.167763 -128.000092 -110.544609
v 97.945259 128.000275 -154.906555
v 94.167763 128.000275 -110.544624
v 144.581451 128.000275 -137.132812
v 116.264725 128.000275 -102.775642
vn 0.0000 -1.0000 0.0000
vn 0.0000 1.0000 0.0000
vn -0.9964 0.0000 -0.0848
vn 0.3561 0.0000 -0.9344
vn -0.3317 0.0000 0.9434
vn 0.7717 0.0000 0.6360
usemtl None
s off
f 66//49 68//49 67//49 65//49
f 72//50 71//50 69//50 70//50
f 67//51 68//51 70//51 69//51
f 65//52 67//52 69//52 71//52
f 68//53 66//53 72//53 70//53
f 66//54 65//54 71//54 72//54
g region_9
v 97.945267 -128.000092 -154.906555
v 94.167770 -128.000092 -110.544601
v 49.209011 -128.000092 -146.444305
v 63.566776 -128.000092 -104.300430
v 49.209011 128.000275 -146.444305
v 63.566776 128.000275 -104.300446
v 97.945267 128.000275 -154.906555
v 94.167770 128.000275 -110.544617
vn 0.0000 -1.0000 0.0000
vn 0.0000 1.0000 0.0000
vn -0.9466 0.0000 0.3225
vn -0.1711 0.0000 -0.9853
vn 0.1999 0.0000 0.9798
vn 0.9964 0.0000 0.0848
usemtl None
s off
f 74//55 76//55 75//55 73//55
f 80//56 79//56 77//56 78//56
f 75//57 76//57 78//57 77//57
f 73//58 75//58 77//58 79//58
f 76//59 74//59 80//59 78//59
f 74//60 73//60 79//60 80//60
g region_10
v 49.209007 -128.000061 -146.444305
v 63.566772 -128.000061 -104.300438
v 12.781277 -128.000061 -121.558846
v 45.038937 -128.000061 -90.871819
v 12.781277 128.000290 -121.558846
v 45.038937 128.000290 -90.871819
v 49.209007 128.000259 -146.444305
v 63.566772 128.000259 -104.300453
vn 0.0000 -1.0000 0.0000
vn 0.0000 1.0000 -0.0000
vn -0.6892 0.0000 0.7245
vn -0.5641 0.0000 -0.8257
vn 0.5869 0.0000 0.8097
vn 0.9466 0.0000 -0.3225
usemtl None
s off
f 82//61 84//61 83//61 81//61
f 88//62 87//62 85//62 86//62
f 83//63 84//63 86//63 85//63
f 81//64 83//64 85//64 87//64
f 84//65 82//65 88//65 86//65
f 82//66 81//66 87//66 88//66
g region_11
v 12.781279 -128.000092 -121.558846
v 45.038937 -128.000092 -90.871819
v -15.083523 -128.000092 -93.113518
v 17.174139 -128.000092 -62.426491
v -15.083523 128.000244 -93.113533
v 17.174139 128.000244 -62.426495
v 12.781279 128.000275 -121.558846
v 45.038937 128.000275 -90.871819
vn 0.0000 -1.0000 0.0000
vn -0.0000 1.0000 0.0000
vn -0.6892 0.0000 0.7245
vn -0.7144 -0.0000 -0.6998
vn 0.7144 0.0000 0.6998
vn 0.6892 0.0000 -0.7245
usemtl None
s off
f 90//67 92//67 91//67 89//67
f 96//68 95//68 93//68 94//68
f 91//69 92//69 94//69 93//69
f 89//70 91//70 93//70 95//70
f 92//71 90//71 96//71 94//71
f 90//72 89//72 95//72 96//72
g region_12
v -15.083521 -128.000092 -93.113518
v 17.174137 -128.000092 -62.426491
v -41.164963 -128.000153 -65.694572
v -8.907309 -128.000153 -35.007534
v -41.164963 128.000244 -65.694572
v -8.907309 128.000244 -35.007538
v -15.083521 128.000275 -93.113533
v 17.174137 128.000275 -62.426495
vn 0.0000 -1.0000 -0.0000
vn -0.0000 1.0000 0.0000
vn -0.6892 0.0000 0.7245
vn -0.7246 -0.0000 -0.6892
vn 0.7246 0.0000 0.6892
vn 0.6892 -0.0000 -0.7245
usemtl None
s off
f 98//73 100//73 99//73 97//73
f 104//74 103//74 101//74 102//74
f 99//75 100//75 102//75 101//75
f 97//76 99//76 101//76 103//76
f 100//77 98//77 104//77 102//77
f 98//78 97//78 103//78 104//78
g region_14
v -66.521927 -128.000107 -39.780312
v -34.264275 -128.000107 -9.093273
v -95.501312 -128.000107 -6.342554
v -63.243656 -128.000107 24.344486
v -95.501312 128.000259 -6.342558
v -63.243656 128.000259 24.344482
v -66.521927 128.000259 -39.780315
v -34.264275 128.000259 -9.093277
vn 0.0000 -1.0000 0.0000
vn 0.0000 1.0000 0.0000
vn -0.6892 0.0000 0.7245
vn -0.7557 0.0000 -0.6549
vn 0.7557 0.0000 0.6549
vn 0.6892 -0.0000 -0.7245
usemtl None
s off
f 106//79 108//79 107//79 105//79
f 112//80 111//80 109//80 110//80
f 107//81 108//81 110//81 109//81
f 105//82 107//82 109//82 111//82
f 108//83 106//83 112//83 110//83
f 106//84 105//84 111//84 112//84
g region_15
v -95.501312 -128.000107 -6.342554
v -63.243652 -128.000107 24.344484
v -119.465034 -128.000107 21.076405
v -87.207375 -128.000107 51.763443
v -119.465034 128.000259 21.076401
v -87.207375 128.000259 51.763439
v -95.501312 128.000259 -6.342560
v -63.243652 128.000259 24.344481
vn 0.0000 -1.0000 0.0000
vn 0.0000 1.0000 0.0000
vn -0.6892 0.0000 0.7245
vn -0.7530 -0.0000 -0.6581
vn 0.7530 0.0000 0.6581
vn 0.6892 0.0000 -0.7245
usemtl None
s off
f 114//85 116//85 115//85 113//85
f 120//86 119//86 117//86 118//86
f 115//87 116//87 118//87 117//87
f 113//88 115//88 117//88 119//88
f 116//89 114//89 120//89 118//89
f 114//90 113//90 119//90 120//90
g region_16
v -119.465034 -128.000107 21.076405
v -87.207375 -128.000107 51.763443
v -143.874603 -128.000107 49.498497
v -111.616936 -128.000107 80.185539
v -143.874603 128.000259 49.498493
v -111.616936 128.000259 80.185524
v -119.465034 128.000259 21.076401
v -87.207375 128.000259 51.763439
vn 0.0000 -1.0000 0.0000
vn 0.0000 1.0000 0.0000
vn -0.6892 0.0000 0.7245
vn -0.7586 0.0000 -0.6515
vn 0.7586 0.0000 0.6515
vn 0.6892 -0.0000 -0.7245
usemtl None
s off
f 122//91 124//91 123//91 121//91
f 128//92 127//92 125//92 126//92
f 123//93 124//93 126//93 125//93
f 121//94 123//94 125//94 127//94
f 124//95 122//95 128//95 126//95
f 122//96 121//96 127//96 128//96
g region_17
v -143.874603 -128.000107 49.498497
v -111.616943 -128.000107 80.185539
v -167.176453 -128.000107 68.480949
v -155.190582 -128.000107 111.359718
v -167.176453 128.000259 68.480934
v -155.190582 128.000259 111.359718
v -143.874603 128.000259 49.498493
v -111.616943 128.000259 80.185524
vn 0.0000 -1.0000 -0.0000
vn 0.0000 1.0000 0.0000
vn -0.9631 0.0000 0.2692
vn -0.6316 -0.0000 -0.7753
vn 0.5819 0.0000 0.8133
vn 0.6892 -0.0000 -0.7245
usemtl None
s off
f 130//97 132//97 131//97 129//97
f 136//98 135//98 133//98 134//98
f 131//99 132//99 134//99 133//99
f 129//100 131//100 133//100 135//100
f 132//101 130//101 136//101 134//101
f 130//102 129//102 135//102 136//102
g region_18
v -167.176453 -128.000107 68.480949
v -155.190582 -128.000107 111.359718
v -184.947861 -128.000107 70.301765
v -192.257065 -128.000107 114.220177
v -184.947861 128.000259 70.301765
v -192.257065 128.000259 114.220177
v -167.176453 128.000259 68.480934
v -155.190582 128.000259 111.359718
vn 0.0000 -1.0000 0.0000
vn 0.0000 1.0000 -0.0000
vn -0.9864 0.0000 -0.1642
vn -0.1019 -0.0000 -0.9948
vn 0.0769 0.0000 0.9970
vn 0.9631 0.0000 -0.2692
usemtl None
s off
f 138//103 140//103 139//103 137//103
f 144//104 143//104 141//104 142//104
f 139//105 140//105 142//105 141//105
f 137//106 139//106 141//106 143//106
f 140//107 138//107 144//107 142//107
f 138//108 137//108 143//108 144//108
g region_19
v -184.947861 -128.000122 70.301765
v -192.257065 -128.000122 114.220177
v -197.454193 -128.000122 71.153770
v -223.405579 -128.000122 107.330803
v -197.454193 128.000244 71.153770
v -223.405579 128.000244 107.330803
v -184.947861 128.000244 70.301765
v -192.257065 128.000244 114.220177
vn 0.0000 -1.0000 -0.0000
vn 0.0000 1.0000 0.0000
vn -0.8126 0.0000 -0.5829
vn -0.0680 0.0000 -0.9977
vn -0.2160 0.0000 0.9764
vn 0.9864 0.0000 0.1642
usemtl None
s off
f 146//109 148//109 147//109 145//109
f 152//110 151//110 149//110 150//110
f 147//111 148//111 150//111 149//111
f 145//112 147//112 149//112 151//112
f 148//113 146//113 152//113 150//113
f 146//114 145//114 151//114 152//114
g region_20
v -197.454193 -128.000122 71.153770
v -223.405579 -128.000122 107.330803
v -208.988281 -128.000122 60.460197
v -246.702484 -128.000122 84.122231
v -208.988281 128.000244 60.460194
v -246.702484 128.000244 84.122215
v -197.454193 128.000244 71.153770
v -223.405579 128.000244 107.330803
vn 0.0000 -1.0000 0.0000
vn 0.0000 1.0000 0.0000
vn -0.5315 0.0000 -0.8471
vn 0.6799 0.0000 -0.7333
vn -0.7058 0.0000 0.7084
vn 0.8126 0.0000 0.5829
usemtl None
s off
f 154//115 156//115 155//115 153//115
f 160//116 159//116 157//116 158//116
f 155//117 156//117 158//117 157//117
f 153//118 155//118 157//118 159//118
f 156//119 154//119 160//119 158//119
f 154//120 153//120 159//120 160//120
g region_21
v -208.988281 -128.000122 60.460197
v -246.702484 -128.000122 84.122231
v -210.697617 -128.000122 46.519806
v -255.210281 -128.000122 45.583923
v -210.697617 128.000244 46.519802
v -255.210281 128.000244 45.583920
v -208.988281 128.000244 60.460194
v -246.702484 128.000244 84.122215
vn 0.0000 -1.0000 0.0000
vn 0.0000 1.0000 0.0000
vn 0.0210 -0.0000 -0.9998
vn 0.9926 0.0000 -0.1217
vn -0.9765 0.0000 0.2156
vn 0.5315 0.0000 0.8471
usemtl None
s off
f 162//121 164//121 163//121 161//121
f 168//122 167//122 165//122 166//122
f 163//123 164//123 166//123 165//123
f 161//124 163//124 165//124 167//124
f 164//125 162//125 168//125 166//125
f 162//126 161//126 167//126 168//126
g region_22
v -210.697617 -128.000122 46.519806
v -255.210281 -128.000122 45.583923
v -204.125626 -128.000122 31.679560
v -223.700363 -128.000122 -8.308983
v -204.125626 128.000244 31.679556
v -223.700363 128.000244 -8.308990
v -210.697617 128.000244 46.519798
v -255.210281 128.000244 45.583916
vn 0.0000 -1.0000 0.0000
vn 0.0000 1.0000 0.0000
vn 0.8982 0.0000 -0.4397
vn 0.9144 0.0000 0.4049
vn -0.8633 0.0000 -0.5047
vn -0.0210 0.0000 0.9998
usemtl None
s off
f 170//127 172//127 171//127 169//127
f 176//128 175//128 173//128 174//128
f 171//129 172//129 174//129 173//129
f 169//130 171//130 173//130 175//130
f 172//131 170//131 176//131 174//131
f 170//132 169//132 175//132 176//132
g region_23
v -204.125626 -128.000122 31.679562
v -223.700363 -128.000122 -8.308983
v -182.868347 -128.000122 22.995670
v -182.912018 -128.000122 -21.526819
v -182.868347 128.000244 22.995667
v -182.912018 128.000244 -21.526819
v -204.125626 128.000244 31.679558
v -223.700363 128.000244 -8.308987
vn 0.0000 -1.0000 -0.0000
vn 0.0000 1.0000 -0.0000
vn 1.0000 -0.0000 -0.0010
vn 0.3782 0.0000 0.9257
vn -0.3083 0.0000 -0.9513
vn -0.8982 0.0000 0.4397
usemtl None
s off
f 178//133 180//133 179//133 177//133
f 184//134 183//134 181//134 182//134
f 179//135 180//135 182//135 181//135
f 177//136 179//136 181//136 183//136
f 180//137 178//137 184//137 182//137
f 178//138 177//138 183//138 184//138
g region_24
v -182.868347 -128.000122 22.995670
v -182.912018 -128.000122 -21.526817
v -147.349503 -128.000122 21.289185
v -144.867813 -128.000122 -23.164104
v -147.349503 128.000244 21.289181
v -144.867813 128.000244 -23.164108
v -182.868347 128.000244 22.995667
v -182.912018 128.000244 -21.526821
vn 0.0000 -1.0000 0.0000
vn 0.0000 1.0000 -0.0000
vn 0.9984 0.0000 0.0557
vn 0.0480 0.0000 0.9988
vn -0.0430 -0.0000 -0.9991
vn -1.0000 0.0000 0.0010
usemtl None
s off
f 186//139 188//139 187//139 185//139
f 192//140 191//140 189//140 190//140
f 187//141 188//141 190//141 189//141
f 185//142 187//142 189//142 191//142
f 188//143 186//143 192//143 190//143
f 186//144 185//144 191//144 192//144
g region_25
v -147.349518 -128.000122 21.289185
v -144.867828 -128.000122 -23.164104
v -109.787773 -128.000122 21.837193
v -107.306084 -128.000122 -22.616096
v -109.787773 128.000244 21.837189
v -107.306084 128.000244 -22.616100
v -147.349518 128.000244 21.289181
v -144.867828 128.000244 -23.164108
vn 0.0000 -1.0000 0.0000
vn 0.0000 1.0000 -0.0000
vn 0.9984 0.0000 0.0557
vn -0.0146 0.0000 0.9999
vn 0.0146 -0.0000 -0.9999
vn -0.9984 0.0000 -0.0557
usemtl None
s off
f 194//145 196//145 195//145 193//145
f 200//146 199//146 197//146 198//146
f 195//147 196//147 198//147 197//147
f 193//148 195//148 197//148 199//148
f 196//149 194//149 200//149 198//149
f 194//150 193//150 199//150 200//150
g region_26
v -109.787766 -128.000122 21.837194
v -107.306076 -128.000122 -22.616095
v -78.672081 -128.000122 21.604986
v -76.190392 -128.000122 -22.848303
v -78.672081 128.000244 21.604982
v -76.190392 128.000244 -22.848307
v -109.787766 128.000244 21.837191
v -107.306076 128.000244 -22.616098
vn 0.0000 -1.0000 0.0000
vn 0.0000 1.0000 0.0000
vn 0.9984 0.0000 0.0557
vn 0.0075 0.0000 1.0000
vn -0.0075 -0.0000 -1.0000
vn -0.9984 0.0000 -0.0557
usemtl None
s off
f 202//151 204//151 203//151 201//151
f 208//152 207//152 205//152 206//152
f 203//153 204//153 206//153 205//153
f 201//154 203//154 205//154 207//154
f 204//155 202//155 208//155 206//155
f 202//156 201//156 207//156 208//156
g region_13
v -41.164967 -128.000122 -65.694572
v -8.907309 -128.000122 -35.007534
v -66.521927 -128.000092 -39.780312
v -34.264275 -128.000092 -9.093273
v -66.521927 128.000244 -39.780315
v -34.264275 128.000244 -9.093277
v -41.164967 128.000244 -65.694572
v -8.907309 128.000244 -35.007538
vn -0.0000 -1.0000 0.0000
vn 0.0000 1.0000 0.0000
vn -0.6892 0.0000 0.7245
vn -0.7148 0.0000 -0.6994
vn 0.7148 0.0000 0.6994
vn 0.6892 -0.0000 -0.7245
usemtl None
s off
f 210//157 212//157 211//157 209//157
f 216//158 215//158 213//158 214//158
f 211//159 212//159 214//159 213//159
f 209//160 211//160 213//160 215//160
f 212//161 210//161 216//161 214//161
f 210//162 209//162 215//162 216//162
g region_0
v -49.429398 -128.000122 -22.261242
v -49.429398 -128.000122 22.261234
v -3.668491 -128.000122 22.261234
v -3.668491 -128.000122 -22.261242
v -49.429398 128.000244 -22.261246
v -49.429398 128.000244 22.261230
v -3.668491 128.000244 22.261230
v -3.668491 128.000244 -22.261246
vn 0.0000 -1.0000 0.0000
vn 0.0000 1.0000 0.0000
vn -1.0000 0.0000 0.0000
vn 0.0000 0.0000 1.0000
vn 1.0000 0.0000 0.0000
vn 0.0000 -0.0000 -1.0000
usemtl None
s off
f 218//163 217//163 220//163 219//163
f 222//164 223//164 224//164 221//164
f 217//165 218//165 222//165 221//165
f 218//166 219//166 223//166 222//166
f 219//167 220//167 224//167 223//167
f 220//168 217//168 221//168 224//168
